<svg xmlns="http://www.w3.org/2000/svg" xmlns:xlink="http://www.w3.org/1999/xlink">
  <symbol id="chevron-right" viewBox="0 0 8 14">
    <title>chevron-right</title>
    <path d="M1 14c-.26 0-.51-.1-.71-.29a.996.996 0 0 1 0-1.41l5.29-5.29-5.29-5.3C-.1 1.32-.1.68.29.29s1.03-.39 1.42 0l6 6c.39.39.39 1.02 0 1.41l-6 6.01c-.2.2-.45.29-.71.29"/>
  </symbol>
  <symbol id="download" viewBox="0 0 24 24">
    <title>download</title>
    <path d="M17.6 8.02c-.17-.07-.37-.11-.59-.12h-.28c-.15 0-.32.01-.5.03l-.2.04-2.71 1.82V3.97c.01-.13-.03-.24-.11-.34s-.2-.16-.34-.14h-2.69c-.12-.01-.23.03-.33.11-.1.08-.14.19-.13.33v5.82L7.35 7.97l-.21-.04c-.17-.02-.33-.03-.49-.03h-.28c-.23.01-.44.05-.6.12a1.4 1.4 0 0 0-.53.41c-.2.27-.3.57-.3.9 0 .33.1.64.3.91.01.01.24.28.7.84 1.97 2.4 3.38 4.03 4.24 4.94.36.43.81.73 1.37.89.53-.17.97-.47 1.32-.89.76-.83 2.05-2.33 3.92-4.52.7-.84 1.06-1.27 1.08-1.28.21-.26.32-.56.33-.91.01-.34-.1-.64-.31-.9a1.4 1.4 0 0 0-.53-.41zm2.14 8.92h-2.19v1.32c0 .12-.04.22-.12.31-.08.09-.19.14-.32.15H6.62c-.12 0-.22-.05-.3-.15-.08-.1-.13-.2-.14-.31v-1.32H4v3.49c-.02.25.06.46.25.64.19.18.4.26.64.25h14.01c.25.01.46-.07.64-.25.19-.18.26-.4.25-.64v-3.49h-.02z"/>
  </symbol>
  <symbol id="external" viewBox="0 0 10 10">
    <title>external</title>
    <path d="M6.6 8.2a34.45 34.45 0 0 1-4-.2 1.08 1.08 0 0 1-.8-.9 32.72 32.72 0 0 1-.2-4c0-.4 0-1.9.1-3.1a1.27 1.27 0 0 0-.6.1 1.06 1.06 0 0 0-.9.9A32.11 32.11 0 0 0 0 4.9a34.45 34.45 0 0 0 .2 4 1.06 1.06 0 0 0 .9.9A32.11 32.11 0 0 0 5 10a34.45 34.45 0 0 0 4-.2 1.06 1.06 0 0 0 .9-.9c0-.3.1-.5.1-.8-1.3.1-3 .1-3.4.1" />
    <path d="m10 .8-.6 4.5c0 .3-.3.5-.6.6a.63.63 0 0 1-.6-.5l-.3-1.1s.7-1.3.7-1.4v-.1L5.4 6c-.4.3-.8.1-1.2-.2S3.7 5 4 4.6l2.3-2.3-1.7-.5a.56.56 0 0 1-.5-.6.65.65 0 0 1 .6-.6L9.3 0c.2 0 .4 0 .5.2a1.42 1.42 0 0 1 .2.6" />
  </symbol>
  <symbol id="sort" viewBox="0 0 320 512"><!--!Font Awesome Free 6.7.2 by @fontawesome - https://fontawesome.com License - https://fontawesome.com/license/free Copyright 2025 Fonticons, Inc.--><path d="M137.4 41.4c12.5-12.5 32.8-12.5 45.3 0l128 128c9.2 9.2 11.9 22.9 6.9 34.9s-16.6 19.8-29.6 19.8L32 224c-12.9 0-24.6-7.8-29.6-19.8s-2.2-25.7 6.9-34.9l128-128zm0 429.3l-128-128c-9.2-9.2-11.9-22.9-6.9-34.9s16.6-19.8 29.6-19.8l256 0c12.9 0 24.6 7.8 29.6 19.8s2.2 25.7-6.9 34.9l-128 128c-12.5 12.5-32.8 12.5-45.3 0z"/></symbol>
</svg>
